<svg width="16" height="20" viewBox="0 0 16 20" fill="none" xmlns="http://www.w3.org/2000/svg">
<path d="M15.8491 15.0885V20H1.11467V15.0885H5.95793V6.39111C5.75329 6.66397 5.43495 6.93683 5.00292 7.20969C4.57089 7.48255 4.08202 7.74404 3.5363 7.99416C3.01332 8.24428 2.47897 8.44893 1.93325 8.60809C1.38753 8.74452 0.887282 8.81274 0.432515 8.81274V3.76483C0.819067 3.76483 1.29657 3.65114 1.86503 3.42375C2.43349 3.17363 3.00195 2.86666 3.57041 2.50285C4.1616 2.13904 4.67321 1.77522 5.10524 1.41141C5.56001 1.0476 5.84424 0.751998 5.95793 0.524615H11.5175V15.0885H15.8491Z" fill="#75BF7A"/>
</svg>
